<?xml version="1.0" encoding="UTF-8"?>
<svg width="67px" height="67px" viewBox="0 0 67 67" version="1.1" xmlns="http://www.w3.org/2000/svg" xmlns:xlink="http://www.w3.org/1999/xlink">
    <!-- Generator: Sketch 53.2 (72643) - https://sketchapp.com -->
    <title>large-gear</title>
    <desc>Created with Sketch.</desc>
    <g id="Page-1" stroke="none" stroke-width="1" fill="none" fill-rule="evenodd">
        <g id="Artboard" transform="translate(-285.000000, -246.000000)">
            <g id="bolt" transform="translate(348.000000, 292.990672)" fill="#000000" fill-rule="nonzero">
                <path d="M2.00620149,65.7333333 C1.59443365,65.7333333 1.07972386,65.6288748 0.770897982,65.3154992 C-0.0526376903,64.6887481 -0.258521608,63.4352458 0.359130146,62.5995776 L16.9327856,35.9626542 L9.72684842,35.2314445 C8.90331275,35.126986 8.28566099,34.6046934 7.97683511,33.8734837 C7.66800924,33.1422741 7.87389316,32.3066059 8.38860295,31.6798548 L37.9329452,0.655673357 C38.6535389,-0.179994829 39.7859005,-0.179994829 40.6094361,0.44675631 C41.4329718,1.07350745 41.6388557,2.22255121 41.1241459,3.16267791 L28.1534591,24.8900507 L37.3152934,25.8301775 C38.0358872,25.934636 38.7564809,26.4569286 39.0653067,27.1881383 C39.3741326,27.9193479 39.1682487,28.7550161 38.6535389,29.2773087 C38.6535389,29.2773087 38.5505969,29.3817672 38.5505969,29.3817672 C38.5505969,29.3817672 38.447655,29.4862258 38.447655,29.4862258 L3.55033088,65.0021237 C3.03562108,65.5244163 2.52091129,65.7333333 2.00620149,65.7333333 Z M14.2562946,31.3664792 L20.5357541,31.9932303 C21.2563478,32.0976889 21.8739996,32.5155229 22.1828255,33.1422741 C22.4916513,33.7690252 22.4916513,34.6046934 22.0798835,35.126986 L13.6386429,48.9155111 L32.6829053,29.5906843 L24.5504905,28.7550161 C23.8298968,28.6505576 23.2122451,28.2327235 22.9034192,27.6059724 C22.5945933,26.9792212 22.5945933,26.2480115 23.0063611,25.6212604 L28.256401,16.8467445 L14.2562946,31.3664792 Z" id="Shape"></path>
            </g>
            <g id="Group-9" transform="translate(285.000000, 246.000000)">
                <g id="large-gear" transform="translate(33.000000, 33.500000) rotate(-180.000000) translate(-33.000000, -33.500000) translate(1.000000, 2.000000)">
                    <g id="Group-15" transform="translate(31.976607, 31.657309) rotate(-345.000000) translate(-31.976607, -31.657309) translate(6.476607, 6.157309)">
                        <polygon id="Path-24" fill="#FFCB57" points="14.0948359 1.70994574 14.8995394 11.923576 12.3338705 15.7099457 2.91796875 13.0974411 -1.8189894e-12 22.9992728 7.4497697 27.6527476 9.61132812 31.7387258 5.12792969 40.2971205 9.61132812 44.7936881 18.9938154 40.2971205 23.7138672 42.2175162 27.6142578 50.5068102 36.7837248 47.5641959 36.7837248 38.0304538 39.1601562 34.3962271 48.3173828 36.2099457 50.8359375 27.6527476 43.1064453 22.2175476 40.8427734 18.2665322 46.4794922 9.60130526 39.1601562 3.70994574 32.4660089 8.20994574 27.6142578 8.1660254 23.7138672 -3.62732067e-12"></polygon>
                        <circle id="Oval" fill="#FFFFFF" cx="25.1666304" cy="26.2041444" r="7"></circle>
                    </g>
                    <g id="Group-4" transform="translate(5.000000, 4.000000)" fill="#000000" fill-rule="nonzero">
                        <g id="Group-3">
                            <g id="Group-2">
                                <g id="Group-5" transform="translate(0.000000, 0.000000)">
                                    <path d="M29.4964086,4 L22,4 C20.8954305,4 20,3.1045695 20,2 C20,0.8954305 20.8954305,3.01980663e-13 22,3.01980663e-13 L31.1666667,3.01980663e-13 C32.1337303,3.01980663e-13 32.9622653,0.691933657 33.1346391,1.64351094 L34.7276745,10.4377489 L36.5938124,11.8554375 L45.4077426,8.48504928 C46.3302738,8.13227946 47.3721828,8.50576158 47.8605198,9.36427046 L52.4438531,17.4218876 C52.9229096,18.2640813 52.7293841,19.3285365 51.9845482,19.9482177 L45.0409429,25.7250904 L45.0409429,28.5237987 L52.0465423,34.8561798 C52.7681774,35.5084678 52.91584,36.5853759 52.3964179,37.4078342 L47.8130846,44.6651314 C47.3118503,45.458791 46.3261044,45.7970704 45.443158,45.4784216 L37.2095748,42.5069822 L35.1076442,43.8677261 L33.120357,52.9413175 C32.9193135,53.8592452 32.1063527,54.5134225 31.1666667,54.5134225 L22,54.5134225 C20.8954305,54.5134225 20,53.617992 20,52.5134225 C20,51.408853 20.8954305,50.5134225 22,50.5134225 L29.5572969,50.5134225 L31.376315,42.2081174 C31.4890963,41.6931787 31.8006145,41.2435881 32.2431249,40.9571166 L35.8685362,38.6101044 C36.3931894,38.2704554 37.0464567,38.1955976 37.634342,38.4077611 L45.289271,41.1703685 L48.1156943,36.6949807 L41.6998173,30.8956513 C41.2803191,30.5164657 41.0409429,29.9774194 41.0409429,29.4119458 L41.0409429,24.7873587 C41.0409429,24.1932357 41.3050874,23.6298666 41.7618113,23.2498859 L48.1391016,17.9441705 L45.2326148,12.8344923 L36.9837993,15.9887844 C36.3379009,16.2357716 35.6102406,16.1315811 35.0596038,15.7132672 L31.68851,13.1522771 C31.2900797,12.8495931 31.0195795,12.4085563 30.9303923,11.9162048 L29.4964086,4 Z" id="Path-4"></path>
                                    <path d="M7.49640859,4 L2,4 C0.8954305,4 7.76267939e-13,3.1045695 7.76267939e-13,2 C7.76267939e-13,0.8954305 0.8954305,2.94875235e-13 2,2.94875235e-13 L9.16666667,2.94875235e-13 C10.1337303,2.94875235e-13 10.9622653,0.691933657 11.1346391,1.64351094 L12.7276745,10.4377489 L14.5938124,11.8554375 L23.4077426,8.48504928 C24.3302738,8.13227946 25.3721828,8.50576158 25.8605198,9.36427046 L30.4438531,17.4218876 C30.9229096,18.2640813 30.7293841,19.3285365 29.9845482,19.9482177 L23.0409429,25.7250904 L23.0409429,28.5237987 L30.0465423,34.8561798 C30.7681774,35.5084678 30.91584,36.5853759 30.3964179,37.4078342 L25.8130846,44.6651314 C25.3118503,45.458791 24.3261044,45.7970704 23.443158,45.4784216 L15.2095748,42.5069822 L13.1076442,43.8677261 L11.120357,52.9413175 C10.9193135,53.8592452 10.1063527,54.5134225 9.16666667,54.5134225 L2,54.5134225 C0.8954305,54.5134225 7.80708831e-13,53.617992 7.76267939e-13,52.5134225 C7.71827047e-13,51.408853 0.8954305,50.5134225 2,50.5134225 L7.55729692,50.5134225 L9.37631504,42.2081174 C9.48909629,41.6931787 9.80061452,41.2435881 10.2431249,40.9571166 L13.8685362,38.6101044 C14.3931894,38.2704554 15.0464567,38.1955976 15.634342,38.4077611 L23.289271,41.1703685 L26.1156943,36.6949807 L19.6998173,30.8956513 C19.2803191,30.5164657 19.0409429,29.9774194 19.0409429,29.4119458 L19.0409429,24.7873587 C19.0409429,24.1932357 19.3050874,23.6298666 19.7618113,23.2498859 L26.1391016,17.9441705 L23.2326148,12.8344923 L14.9837993,15.9887844 C14.3379009,16.2357716 13.6102406,16.1315811 13.0596038,15.7132672 L9.68851,13.1522771 C9.29007966,12.8495931 9.01957949,12.4085563 8.9303923,11.9162048 L7.49640859,4 Z" id="Path-4" transform="translate(15.352762, 27.256711) scale(-1, 1) translate(-15.352762, -27.256711) "></path>
                                </g>
                            </g>
                        </g>
                        <path d="M26.5,37 C21.2532949,37 17,32.7467051 17,27.5 C17,22.2532949 21.2532949,18 26.5,18 C31.7467051,18 36,22.2532949 36,27.5 C36,32.7467051 31.7467051,37 26.5,37 Z M26.5,33 C29.5375661,33 32,30.5375661 32,27.5 C32,24.4624339 29.5375661,22 26.5,22 C23.4624339,22 21,24.4624339 21,27.5 C21,30.5375661 23.4624339,33 26.5,33 Z" id="Oval"></path>
                    </g>
                </g>
            </g>
        </g>
    </g>
</svg>