<?xml version="1.0" encoding="UTF-8"?>
<svg width="41px" height="64px" viewBox="0 0 41 64" version="1.1" xmlns="http://www.w3.org/2000/svg" xmlns:xlink="http://www.w3.org/1999/xlink">
    <!-- Generator: Sketch 53.2 (72643) - https://sketchapp.com -->
    <title>phone</title>
    <desc>Created with Sketch.</desc>
    <g id="Page-1" stroke="none" stroke-width="1" fill="none" fill-rule="evenodd">
        <g id="Artboard" transform="translate(-452.000000, -195.000000)">
            <g id="phone" transform="translate(452.000000, 194.990672)">
                <g id="Group-7" transform="translate(20.500000, 32.000000) rotate(-360.000000) translate(-20.500000, -32.000000) ">
                    <rect id="Rectangle" fill="#ABF760" x="2.81395349" y="2.7" width="34.4651163" height="58.5"></rect>
                    <polygon id="Path-23" fill="#FFFFFF" points="8.9397047 29.9252753 31.7248382 29.9252753 31.7248382 9.19802919 8.9397047 9.19802919"></polygon>
                    <g id="noun_Wireframe_2457873" transform="translate(0.000000, -0.000000)">
                        <path d="M38.5555556,0.5 C39.6267076,0.5 40.5,1.35191813 40.5,2.40909091 L40.5,61.5909091 C40.5,62.6480819 39.6267076,63.5 38.5555556,63.5 L2.44444444,63.5 C1.37329242,63.5 0.5,62.6480819 0.5,61.5909091 L0.5,2.40909091 C0.5,1.35191813 1.37329242,0.5 2.44444444,0.5 L38.5555556,0.5 Z M36.5,59.5 L36.5,4.5 L4.5,4.5 L4.5,59.5 L36.5,59.5 Z" id="Combined-Shape" fill="#000000" fill-rule="nonzero"></path>
                        <path d="M9.98166865,31.2252551 C9.02767277,31.2252551 8.25710676,30.4428662 8.25710676,29.4811375 L8.25710676,10.0693728 C8.25710676,9.10764401 9.02767277,8.32525511 9.98166865,8.32525511 L31.4325449,8.32525511 C32.3865408,8.32525511 33.1571068,9.10764401 33.1571068,10.0693728 L33.1571068,29.4811375 C33.1571068,30.4428662 32.3865408,31.2252551 31.4325449,31.2252551 L9.98166865,31.2252551 Z M11.7062305,13.9696871 L11.7062305,27.7370198 L26.9129116,27.7370198 L11.7062305,13.9696871 Z M29.707983,11.8134904 L14.4650326,11.8134904 L29.707983,25.5823666 L29.707983,11.8134904 Z" id="Combined-Shape" fill="#000000" fill-rule="nonzero"></path>
                        <g id="Group-20" transform="translate(7.000000, 45.190671)">
                            <rect id="Rectangle" fill="#FFFFFF" x="1.56108634" y="3.61071205" width="23.9583333" height="4"></rect>
                            <path d="M5.63944857,10.45 C2.8316451,10.45 0.549999982,8.23693464 0.549999982,5.5 C0.549999982,2.76306536 2.8316451,0.549999982 5.63944857,0.549999982 L21.3605514,0.549999982 C24.1683549,0.549999982 26.45,2.76306536 26.45,5.5 C26.45,8.23693464 24.1683549,10.45 21.3605514,10.45 L5.63944857,10.45 Z M5.63944857,4.02142859 C4.78682819,4.02142859 4.10111349,4.68653267 4.10111349,5.5 C4.10111349,6.31346733 4.78682819,6.97857141 5.63944857,6.97857141 L21.3605514,6.97857141 C22.2131718,6.97857141 22.8988865,6.31346733 22.8988865,5.5 C22.8988865,4.68653267 22.2131718,4.02142859 21.3605514,4.02142859 L5.63944857,4.02142859 Z" id="Combined-Shape" fill="#000000" fill-rule="nonzero"></path>
                        </g>
                        <g id="Group-20" transform="translate(7.000000, 34.000000)">
                            <rect id="Rectangle" fill="#FFFFFF" x="1.56108634" y="3.61071205" width="23.9583333" height="4"></rect>
                            <path d="M5.63944857,10.45 C2.8316451,10.45 0.549999982,8.23693464 0.549999982,5.5 C0.549999982,2.76306536 2.8316451,0.549999982 5.63944857,0.549999982 L21.3605514,0.549999982 C24.1683549,0.549999982 26.45,2.76306536 26.45,5.5 C26.45,8.23693464 24.1683549,10.45 21.3605514,10.45 L5.63944857,10.45 Z M5.63944857,4.02142859 C4.78682819,4.02142859 4.10111349,4.68653267 4.10111349,5.5 C4.10111349,6.31346733 4.78682819,6.97857141 5.63944857,6.97857141 L21.3605514,6.97857141 C22.2131718,6.97857141 22.8988865,6.31346733 22.8988865,5.5 C22.8988865,4.68653267 22.2131718,4.02142859 21.3605514,4.02142859 L5.63944857,4.02142859 Z" id="Combined-Shape" fill="#000000" fill-rule="nonzero"></path>
                        </g>
                    </g>
                </g>
            </g>
        </g>
    </g>
</svg>