<?xml version="1.0" encoding="UTF-8"?>
<svg width="58px" height="53px" viewBox="0 0 58 53" version="1.1" xmlns="http://www.w3.org/2000/svg" xmlns:xlink="http://www.w3.org/1999/xlink">
    <!-- Generator: Sketch 53.2 (72643) - https://sketchapp.com -->
    <title>thumbs-up</title>
    <desc>Created with Sketch.</desc>
    <g id="Page-1" stroke="none" stroke-width="1" fill="none" fill-rule="evenodd">
        <g id="Artboard" transform="translate(-357.000000, -204.000000)">
            <g id="thumbs-up" transform="translate(356.750000, 204.057659)">
                <polygon id="Path-22" fill="#4FBEFF" transform="translate(10.400486, 37.205491) rotate(-360.000000) translate(-10.400486, -37.205491) " points="4.09311041 24.6558692 4.09311041 49.7551134 16.7078611 49.7551134 16.7078611 24.6558692"></polygon>
                <g id="noun_like_1504392" transform="translate(29.000000, 26.500000) rotate(-360.000000) translate(-29.000000, -26.500000) " fill="#000000" fill-rule="nonzero">
                    <path d="M57.5,25.8 C57.5,27.4008493 56.8974581,28.8655696 55.8080878,30.0824253 C56.3731695,30.9399098 56.7,32.0174037 56.7,33.08 L56.7,33.88 C56.7,35.2867813 56.1442132,36.5905521 55.1673125,37.5638788 C55.6454202,38.3805536 55.9,39.3083557 55.9,40.28 L55.9,41.08 C55.9,42.4867813 55.3442132,43.7905521 54.3673125,44.7638788 C54.8454202,45.5805536 55.1,46.5083557 55.1,47.48 C55.1,50.3961424 52.7161424,52.78 49.8,52.78 L19.4,52.78 C19.2652293,52.78 19.1795329,52.7602239 19.0418861,52.7143416 C18.9995329,52.7002239 18.9985626,52.7 19,52.7 L18.8787322,52.6850713 C18.2555179,52.5292677 17.5380483,52.1852225 16.8744702,51.7254023 C16.1348797,52.3426286 15.242128,52.7 14.28,52.7 L4.52,52.7 C2.32385763,52.7 0.5,50.8761424 0.5,48.68 L0.5,26.12 C0.5,23.9060925 2.34595459,22.0889809 4.52,22.18 L14.2,22.18 C15.6295832,22.18 16.8907872,22.8828421 17.6119435,24.0265033 C18.3825094,23.6019782 19.1746923,22.8325024 19.8133272,21.7805105 C20.2594012,20.620718 21.0523672,19.0347859 22.1156252,17.4601902 C23.7411489,15.052926 25.686401,13.1401498 27.9677712,11.9971019 C28.0976387,11.9043105 28.3002076,11.7606085 28.4210385,11.6620502 C28.7699954,11.3774164 29.1128842,11.0256433 29.4353161,10.5913964 C30.1042484,9.69048761 30.5933402,8.55857733 30.8230581,7.18478424 C30.9151901,6.35559635 31.1037364,5.43046242 31.4611744,4.4662112 C32.0163589,2.96850406 32.8497588,1.79577204 34.0405739,1.12105221 C35.3180998,0.424219938 36.8366979,0.357222962 38.5901586,1.19612273 C40.9192618,2.40380591 42.5143333,4.63690588 42.9353106,7.3316813 C43.3831914,10.5788172 42.9538034,13.6412542 41.1649144,16.450391 C41.133317,16.5999289 41.0481872,16.6989196 40.8735534,16.8735534 L40.8471077,16.8471077 C40.50306,17.3495149 39.7491397,18.2303415 39.5560369,18.4891761 C39.2582665,18.8883069 39.0041384,19.2711808 38.7808284,19.6687872 C38.8109586,19.6926389 38.8283618,19.7 38.84,19.7 L52.2,19.7 C52.5964786,19.7 52.9836035,19.7964589 53.2945746,19.9841463 C55.7540331,20.8043126 57.5,23.1706047 57.5,25.8 Z M14.1,26.3 L4.7,26.3 L4.7,48.5 L14.1,48.5 L14.1,26.3 Z M19.7248099,48.5 L49.8,48.5 C50.4038576,48.5 50.9,48.0038576 50.9,47.4 C50.9,46.7961424 50.4038576,46.3 49.8,46.3 L48.2,46.3 C47.0438576,46.3 46.1,45.3561424 46.1,44.2 C46.1,43.0438576 47.0438576,42.1 48.2,42.1 L50.6,42.1 C51.2038576,42.1 51.7,41.6038576 51.7,41 L51.7,40.2 C51.7,39.5961424 51.2038576,39.1 50.6,39.1 L49,39.1 C47.8438576,39.1 46.9,38.1561424 46.9,37 C46.9,35.8438576 47.8438576,34.9 49,34.9 L51.4,34.9 C52.0038576,34.9 52.5,34.4038576 52.5,33.8 L52.5,33 C52.5,32.3953575 52.0141208,31.9262327 51.4,31.98 L49,31.98 C47.8438576,31.98 46.9,31.0361424 46.9,29.88 C46.9,28.7238576 47.8438576,27.78 49,27.78 L51.4,27.78 C52.4838576,27.78 53.3,26.9638576 53.3,25.88 C53.3,24.7961424 52.4838576,23.98 51.4,23.98 L38.68,23.98 C37.1591078,23.98 35.7841327,23.1800145 35.0512535,21.8972479 C34.2508469,20.5632367 34.2266939,19.0174489 34.9672869,17.6294819 C35.6889352,16.3829984 36.8727511,14.9094634 37.6490586,14.1240557 C38.8289462,12.2988891 39.0687995,10.3251238 38.7461185,7.95798129 C38.5358866,6.6265122 37.7754686,5.54291657 36.6963932,4.9672136 C36.3283983,4.78321614 36.184622,4.75784386 36.1449995,4.78399915 C35.7250089,5.04649328 35.1769935,6.49992531 35.1,7.56 L35.1,7.6 C35.1,7.63 35.1,7.63 35.0928111,7.72448191 C34.6549956,10.2784056 33.6313172,12.3022597 32.2302515,13.8460266 C31.3639436,14.8005694 30.5421462,15.3879439 29.9436068,15.6872136 C28.2159316,16.5510512 26.6821721,18.1595694 25.3827445,20.2169965 C24.9186605,20.9517961 24.5166166,21.6953313 24.1873215,22.3943351 C24.0677833,22.6480821 23.9655518,22.8801075 23.8870055,23.0716969 C23.8595883,23.1385725 23.8366651,23.1966926 23.82,23.2410892 L23.82,23.3671068 L23.6903278,23.4967789 C23.6900682,23.4977452 23.6890567,23.4999205 23.6872136,23.5036068 C23.6459505,23.586133 23.6125765,23.6430545 23.5605555,23.703248 C22.0973874,26.079345 20.2932811,27.4876661 18.3,28.2334704 L18.3,46.2 C18.3,47.5056824 18.9122703,48.2017262 19.7248099,48.5 Z" id="Combined-Shape"></path>
                </g>
            </g>
        </g>
    </g>
</svg>