<?xml version="1.0" encoding="UTF-8"?>
<svg width="42px" height="66px" viewBox="0 0 42 66" version="1.1" xmlns="http://www.w3.org/2000/svg" xmlns:xlink="http://www.w3.org/1999/xlink">
    <!-- Generator: Sketch 53.2 (72643) - https://sketchapp.com -->
    <title>bolt</title>
    <desc>Created with Sketch.</desc>
    <g id="Page-1" stroke="none" stroke-width="1" fill="none" fill-rule="evenodd">
        <g id="Artboard" transform="translate(-348.000000, -293.000000)">
            <g id="bolt" transform="translate(348.000000, 292.990672)">
                <g id="noun_lighting_304954-(1)" transform="translate(5.595238, 2.266667)"></g>
                <polygon id="Path-21" fill="#D98BFF" points="30.3962402 14.5435221 10.7776635 34.5055176 18.5418294 34.7609556 10.7776635 55.9218099 35.4624023 29.1040546 25.5184384 27.7948893"></polygon>
                <path d="M2.00620149,65.7333333 C1.59443365,65.7333333 1.07972386,65.6288748 0.770897982,65.3154992 C-0.0526376903,64.6887481 -0.258521608,63.4352458 0.359130146,62.5995776 L16.9327856,35.9626542 L9.72684842,35.2314445 C8.90331275,35.126986 8.28566099,34.6046934 7.97683511,33.8734837 C7.66800924,33.1422741 7.87389316,32.3066059 8.38860295,31.6798548 L37.9329452,0.655673357 C38.6535389,-0.179994829 39.7859005,-0.179994829 40.6094361,0.44675631 C41.4329718,1.07350745 41.6388557,2.22255121 41.1241459,3.16267791 L28.1534591,24.8900507 L37.3152934,25.8301775 C38.0358872,25.934636 38.7564809,26.4569286 39.0653067,27.1881383 C39.3741326,27.9193479 39.1682487,28.7550161 38.6535389,29.2773087 C38.6535389,29.2773087 38.5505969,29.3817672 38.5505969,29.3817672 C38.5505969,29.3817672 38.447655,29.4862258 38.447655,29.4862258 L3.55033088,65.0021237 C3.03562108,65.5244163 2.52091129,65.7333333 2.00620149,65.7333333 Z M14.2562946,31.3664792 L20.5357541,31.9932303 C21.2563478,32.0976889 21.8739996,32.5155229 22.1828255,33.1422741 C22.4916513,33.7690252 22.4916513,34.6046934 22.0798835,35.126986 L13.6386429,48.9155111 L32.6829053,29.5906843 L24.5504905,28.7550161 C23.8298968,28.6505576 23.2122451,28.2327235 22.9034192,27.6059724 C22.5945933,26.9792212 22.5945933,26.2480115 23.0063611,25.6212604 L28.256401,16.8467445 L14.2562946,31.3664792 Z" id="Shape" fill="#000000" fill-rule="nonzero"></path>
            </g>
        </g>
    </g>
</svg>