<?xml version="1.0" encoding="UTF-8"?>
<svg width="59px" height="51px" viewBox="0 0 59 51" version="1.1" xmlns="http://www.w3.org/2000/svg" xmlns:xlink="http://www.w3.org/1999/xlink">
    <!-- Generator: Sketch 53.2 (72643) - https://sketchapp.com -->
    <title>heart</title>
    <desc>Created with Sketch.</desc>
    <g id="Page-1" stroke="none" stroke-width="1" fill="none" fill-rule="evenodd">
        <g id="Artboard" transform="translate(-417.000000, -279.000000)">
            <g id="heart" transform="translate(446.500000, 304.490672) rotate(-360.000000) translate(-446.500000, -304.490672) translate(417.000000, 278.990672)">
                <polygon id="Path-20" fill="#FF7A7A" points="28.218359 16.8310547 24.9121094 8.31152344 17.0952148 3.80175781 7.50244141 5.56939796 1.8 13.6245117 3.54217632 21.9472656 10.5029297 31.3989258 28.2763291 48.3081055 53.7973633 21.9472656 53.7973633 13.6245117 50.0429687 6.47363281 43.6318359 3.80175781 36.9755859 4.52755055 32.1816406 8.31152344 29.2880859 12.9721752"></polygon>
                <g id="noun_Heart_915962" transform="translate(0.000000, 0.000000)" fill="#000000" fill-rule="nonzero">
                    <path d="M42.6600684,0.500000192 C51.1674957,0.528712963 58.0485996,7.42091767 58.0526582,15.9161765 C58.0526582,16.0766982 58.0469518,16.2027107 58.0301128,16.4829994 C58.0144835,16.7431519 58.0093671,16.8561345 58.0081322,17.024972 C57.7682139,20.4323249 56.3920445,23.6611021 54.1007479,26.1942276 C53.747816,26.58754 53.3736023,26.9612709 52.9997696,27.2948428 L30.8804082,49.400064 C30.4508017,49.83531 29.8633883,50.0786388 29.256407,50.07485 C28.6443876,50.0769595 28.056813,49.8349391 27.6241543,49.4024896 L5.39189873,27.1844061 L5.39189873,27.1608178 C2.57375805,24.5344788 0.844371067,20.9444087 0.554822058,17.1274641 C0.508890002,16.7801414 0.5,16.5074436 0.5,15.9017647 C0.504009457,8.74956674 5.43688307,2.54153578 12.4094124,0.912981484 C19.0714759,-0.643058186 25.9209152,2.37278643 29.2908137,8.23438347 C32.028248,3.47501289 37.1167017,0.504855694 42.6600684,0.500000192 Z M49.7096597,24.0584364 L50.7603706,23.0109309 C53.8947279,19.3912533 54.2698337,14.1432465 51.6821089,10.1156855 C49.0941943,6.08782909 44.1602882,4.24134299 39.5589625,5.57886128 C34.9578356,6.91632178 31.787063,11.118396 31.7677215,15.9017647 C31.7677215,17.3082862 30.6263,18.4482353 29.2186076,18.4482353 C27.8109152,18.4482353 26.6694937,17.3082862 26.6694957,15.900327 C26.6838182,10.919189 23.2845547,6.57438759 18.4410866,5.38358672 C13.5974352,4.19274079 8.56671382,6.46523949 6.26394744,10.8840448 C3.96133511,15.3025544 4.98371782,20.7207056 8.73884287,23.9992361 L8.91,24.1486703 L8.91,24.2046159 L29.2543774,44.5227493 L49.7096597,24.0584364 Z" id="Combined-Shape"></path>
                </g>
            </g>
        </g>
    </g>
</svg>